<svg width="0" height="0" class="hidden">
    <symbol xmlns="http://www.w3.org/2000/svg" viewBox="0 0 48 48" id="bus">
        <path d="M8 32c0 1.77.78 3.34 2 4.44v3.56c0 1.1.9 2 2 2h2c1.11 0 2-.9 2-2v-2h16v2c0 1.1.89 2 2 2h2c1.1 0 2-.9 2-2v-3.56c1.22-1.1 2-2.67 2-4.44v-20c0-7-7.16-8-16-8s-16 1-16 8v20zm7 2c-1.66 0-3-1.34-3-3s1.34-3 3-3 3 1.34 3 3-1.34 3-3 3zm18 0c-1.66 0-3-1.34-3-3s1.34-3 3-3 3 1.34 3 3-1.34 3-3 3zm3-12h-24v-10h24v10z"></path>
    </symbol>
    <symbol enable-background="new 0 0 512 512" id="date" version="1.1" xml:space="preserve" xmlns="http://www.w3.org/2000/svg" xmlns:xlink="http://www.w3.org/1999/xlink" viewBox="0 0 512 512">
        <g>
            <rect height="65" width="65" x="223.5" y="244.6"/>
            <rect height="65" width="65" x="325.4" y="244.6"/>
            <rect height="65" width="65" x="121.7" y="343.4"/>
            <rect height="65" width="65" x="223.5" y="343.4"/>
            <rect height="65" width="65" x="325.4" y="343.4"/>
            <path d="M155.8,123.8L155.8,123.8c-16,0-29.1-13.1-29.1-29.1V29.2c0-16,13.1-29.1,29.1-29.1h0   c16,0,29.1,13.1,29.1,29.1v65.6C184.9,110.7,171.8,123.8,155.8,123.8z"/>
            <path d="M430.7,61.9h-33v39.7c0,24.5-19.7,44.5-43.8,44.5h-11.6c-24.1,0-43.8-20-43.8-44.5V61.9h-90.4v39.7   c0,24.5-19.7,44.5-43.8,44.5h-11.6c-24.1,0-43.8-20-43.8-44.5V61.9H83.6c-27.1,0-49.3,22.5-49.3,50v350c0,27.5,22.2,50,49.3,50   h347.2c27.1,0,49.3-22.5,49.3-50v-350C480,84.4,457.8,61.9,430.7,61.9z M422.3,414.7c0,17.1-13.8,31.1-30.6,31.1h-269   c-16.8,0-30.6-14-30.6-31.1V238.3c0-17.1,13.8-32.3,30.6-32.3h269c16.8,0,30.6,15.2,30.6,32.3V414.7z"/>
            <path d="M348.3,123.8L348.3,123.8c-16,0-29.1-13.1-29.1-29.1V29.2c0-16,13.1-29.1,29.1-29.1h0   c16,0,29.1,13.1,29.1,29.1v65.6C377.4,110.7,364.3,123.8,348.3,123.8z"/>
        </g>
    </symbol>
    <symbol xmlns="http://www.w3.org/2000/svg" viewBox="0 0 342 428" id="from">
        <path d="M171 0.666626C125.736 0.666626 82.3267 18.6475 50.3205 50.6537C18.3143 82.6599 0.333374 126.07 0.333374 171.333C0.333374 285.253 131.533 427.333 171 427.333C210.467 427.333 341.667 285.253 341.667 171.333C341.667 126.07 323.686 82.6599 291.68 50.6537C259.673 18.6475 216.264 0.666626 171 0.666626V0.666626ZM171 256.667C154.123 256.667 137.624 251.662 123.591 242.285C109.558 232.909 98.621 219.582 92.1623 203.989C85.7036 188.396 84.0138 171.239 87.3064 154.686C90.599 138.133 98.7262 122.928 110.66 110.994C122.594 99.0594 137.799 90.9322 154.352 87.6396C170.905 84.347 188.063 86.0369 203.656 92.4956C219.248 98.9542 232.576 109.892 241.952 123.925C251.329 137.958 256.333 154.456 256.333 171.333C256.333 193.965 247.343 215.67 231.34 231.673C215.337 247.676 193.632 256.667 171 256.667Z" />
    </symbol>
    <symbol xmlns="http://www.w3.org/2000/svg" viewBox="0 0 342 428" id="to">
        <path fill-rule="evenodd" clip-rule="evenodd" d="M50.3205 50.6537C82.3267 18.6475 125.736 0.666626 171 0.666626C216.264 0.666626 259.673 18.6475 291.68 50.6537C323.686 82.6599 341.667 126.07 341.667 171.333C341.667 285.253 210.467 427.333 171 427.333C131.533 427.333 0.333374 285.253 0.333374 171.333C0.333374 126.07 18.3143 82.6599 50.3205 50.6537ZM123.591 242.285C137.624 251.662 154.123 256.667 171 256.667C193.632 256.667 215.337 247.676 231.34 231.673C247.343 215.67 256.333 193.965 256.333 171.333C256.333 154.456 251.329 137.958 241.952 123.925C232.576 109.892 219.248 98.9543 203.656 92.4956C188.063 86.0369 170.905 84.347 154.352 87.6396C137.799 90.9322 122.594 99.0594 110.66 110.993C98.7262 122.928 90.599 138.133 87.3064 154.686C84.0137 171.239 85.7036 188.396 92.1623 203.989C98.621 219.582 109.558 232.909 123.591 242.285ZM171 214C195.853 214 216 193.853 216 169C216 144.147 195.853 124 171 124C146.147 124 126 144.147 126 169C126 193.853 146.147 214 171 214Z"/>
    </symbol>
    <symbol xmlns="http://www.w3.org/2000/svg" viewBox="0 0 24 24" id="route">
        <g id="office">
            <path d="M12.5,13h-1a1,1,0,0,0,0,2h1A1,1,0,0,0,12.5,13Z" />
            <path d="M12.5,9h-1a1,1,0,0,0,0,2h1A1,1,0,0,0,12.5,9Z" />
            <path d="M12.5,5h-1a1,1,0,0,0,0,2h1A1,1,0,0,0,12.5,5Z" />
            <path d="M8.5,13h-1a1,1,0,0,0,0,2h1A1,1,0,0,0,8.5,13Z" />
            <path d="M8.5,9h-1a1,1,0,0,0,0,2h1A1,1,0,0,0,8.5,9Z" />
            <path d="M8.5,5h-1a1,1,0,0,0,0,2h1A1,1,0,0,0,8.5,5Z" />
            <path d="M16.5,13h-1a1,1,0,0,0,0,2h1A1,1,0,0,0,16.5,13Z" />
            <path d="M16.5,9h-1a1,1,0,0,0,0,2h1A1,1,0,0,0,16.5,9Z" />
            <path d="M16.5,5h-1a1,1,0,0,0,0,2h1A1,1,0,0,0,16.5,5Z" />
            <path d="M22,21H21V2a1,1,0,0,0-1-1H4A1,1,0,0,0,3,2V21H2a1,1,0,0,0,0,2H22A1,1,0,0,0,22,21ZM10,21V19h4v2Zm6,0V18a1,1,0,0,0-1-1H9a1,1,0,0,0-1,1v3H5V3H19V21Z"></path>
        </g>
    </symbol>
    <symbol xmlns="http://www.w3.org/2000/svg" viewBox="0 0 20 20" id="switch">
        <path d="M3.75001 12.5714C3.75001 13.2815 4.30964 13.8571 5.00001 13.8571C5.69036 13.8571 6.25001 13.2815 6.25001 12.5714V5.38969L7.86612 7.05199C8.35429 7.55406 9.14574 7.55406 9.6339 7.05199C10.122 6.54991 10.122 5.7358 9.6339 5.23373L5.8839 1.37659C5.64947 1.13551 5.33153 1 5.00001 1C4.66848 1 4.35054 1.13551 4.11612 1.37659L0.366113 5.23373C-0.122038 5.7358 -0.122038 6.54991 0.366113 7.05199C0.854276 7.55406 1.64573 7.55406 2.13389 7.05199L3.75001 5.38969V12.5714Z"/>
        <path d="M16.25 7.42857C16.25 6.71847 15.6904 6.14286 15 6.14286C14.3096 6.14286 13.75 6.71847 13.75 7.42857V14.6103L12.1339 12.948C11.6458 12.4459 10.8543 12.4459 10.3661 12.948C9.87798 13.4501 9.87798 14.2642 10.3661 14.7663L14.1161 18.6234C14.3505 18.8645 14.6685 19 15 19C15.3315 19 15.6495 18.8645 15.8839 18.6234L19.6339 14.7663C20.122 14.2642 20.122 13.4501 19.6339 12.948C19.1458 12.4459 18.3543 12.4459 17.8662 12.948L16.25 14.6103V7.42857Z"/>
    </symbol>
    <symbol viewBox="0 0 22 22" id="time" xmlns="http://www.w3.org/2000/svg">
        <path fill-rule="evenodd" clip-rule="evenodd" d="M11 2C6.02944 2 2 6.02944 2 11C2 15.9706 6.02944 20 11 20C15.9706 20 20 15.9706 20 11C20 6.02944 15.9706 2 11 2ZM0 11C0 4.92487 4.92487 0 11 0C17.0751 0 22 4.92487 22 11C22 17.0751 17.0751 22 11 22C4.92487 22 0 17.0751 0 11Z" />
        <path fill-rule="evenodd" clip-rule="evenodd" d="M11 4C11.5523 4 12 4.44772 12 5V10.382L15.4472 12.1056C15.9412 12.3526 16.1414 12.9532 15.8944 13.4472C15.6474 13.9412 15.0468 14.1414 14.5528 13.8944L10.5528 11.8944C10.214 11.725 10 11.3788 10 11V5C10 4.44772 10.4477 4 11 4Z" />
    </symbol>
</svg>
